<mxfile host="app.diagrams.net" modified="2023-09-26T01:46:49.297Z" agent="Mozilla/5.0 (Macintosh; Intel Mac OS X 10_15_7) AppleWebKit/537.36 (KHTML, like Gecko) Chrome/116.0.0.0 Safari/537.36" version="21.8.2" etag="36NXA80GoCP-9pyVh_LM" type="github">
  <diagram name="Page-1" id="nbVGzxuvjTVbR4t7wCyr">
    <mxGraphModel>
      <root>
        <mxCell id="0" />
        <mxCell id="1" parent="0" />
      </root>
    </mxGraphModel>
  </diagram>
</mxfile>
